# File exported by Houdini 13.0.547 (www.sidefx.com)
# 170 points
# 504 vertices
# 168 primitives
# Bounds: [-9.53115523e-05, 0, 0] to [1, 1.18853831, 0]
g 
v 1 0 0
v 0.999490499 0.0320520736 0
v 0.997949004 0.0640706569 0
v 0.995380282 0.0960231721 0
v 0.991789103 0.127877042 0
v 0.987180173 0.159599677 0
v 0.981558263 0.191158503 0
v 0.974927902 0.222520918 0
v 0.971236289 0.238118321 0
v 0.967294931 0.25365454 0
v 0.963105023 0.269125581 0
v 0.958667755 0.28452751 0
v 0.953984261 0.299856365 0
v 0.949055731 0.31510821 0
v 0.9438833 0.330279112 0
v 0.938468218 0.345365047 0
v 0.932812035 0.360362232 0
v 0.926916242 0.37526685 0
v 0.920782447 0.390075117 0
v 0.9144122 0.404783219 0
v 0.907807112 0.419387341 0
v 0.90096885 0.433883697 0
v 0.893898845 0.448268503 0
v 0.886599123 0.462538123 0
v 0.879071653 0.476688951 0
v 0.87131846 0.490717351 0
v 0.86334151 0.504619777 0
v 0.855142772 0.518392563 0
v 0.846724272 0.532032132 0
v 0.838088095 0.545534909 0
v 0.829236567 0.558897495 0
v 0.820172012 0.572116494 0
v 0.810896873 0.585188627 0
v 0.801413476 0.598110437 0
v 0.791724265 0.610878646 0
v 0.781831443 0.623489797 0
v 0.771737754 0.635940731 0
v 0.761445701 0.648228228 0
v 0.750958085 0.66034925 0
v 0.740277648 0.672300696 0
v 0.729407132 0.684079468 0
v 0.718349218 0.695682585 0
v 0.707106769 0.707106769 0
v 0.695682466 0.718349278 0
v 0.684079409 0.729407191 0
v 0.672300637 0.740277708 0
v 0.66034919 0.750958085 0
v 0.648228228 0.761445701 0
v 0.635940731 0.771737695 0
v 0.623489797 0.781831443 0
v 0.610878587 0.791724145 0
v 0.598110378 0.801413357 0
v 0.585188508 0.810896754 0
v 0.572116375 0.820171893 0
v 0.558897376 0.829236448 0
v 0.54553479 0.838087976 0
v 0.532032013 0.846724153 0
v 0.518415213 0.855163932 0
v 0.504801571 0.86351198 0
v 0.491331041 0.87189424 0
v 0.478143632 0.880436718 0
v 0.465379328 0.889265358 0
v 0.453178108 0.898506165 0
v 0.441679865 0.90828526 0
v 0.430920839 0.918664455 0
v 0.420521528 0.929450274 0
v 0.409998596 0.940385163 0
v 0.39886868 0.951211572 0
v 0.386648446 0.961672008 0
v 0.372854561 0.97150892 0
v 0.357003659 0.980464697 0
v 0.338804781 0.988392889 0
v 0.318736523 0.995590448 0
v 0.297469854 1.00246537 0
v 0.275675714 1.00942552 0
v 0.254025072 1.01687884 0
v 0.233188882 1.02523327 0
v 0.213838145 1.03489661 0
v 0.180892631 1.05876946 0
v 0.153635994 1.08669436 0
v 0.129131615 1.11585522 0
v 0.104442902 1.14343607 0
v 0.0766332448 1.16662097 0
v 0.0427660421 1.1825937 0
v -9.53115523e-05 1.18853831 0
v 0.699999988 0 0
v 0.699642658 0.0255671274 0
v 0.698569894 0.0511149317 0
v 0.696781933 0.0766229704 0
v 0.694279015 0.102070808 0
v 0.691061437 0.127438024 0
v 0.687129378 0.152704135 0
v 0.682483017 0.177848697 0
v 0.679911196 0.190280125 0
v 0.677163541 0.202673927 0
v 0.674240112 0.215027466 0
v 0.671141028 0.227338091 0
v 0.667866349 0.239603162 0
v 0.664416194 0.251820058 0
v 0.660790861 0.263986081 0
v 0.657022178 0.27599889 0
v 0.653081238 0.287956387 0
v 0.648968279 0.299855798 0
v 0.64468348 0.311694354 0
v 0.640227079 0.323469341 0
v 0.635599196 0.335178018 0
v 0.630800068 0.346817672 0
v 0.625883102 0.358263999 0
v 0.620798945 0.369637161 0
v 0.615548015 0.380934268 0
v 0.610130608 0.392152458 0
v 0.604547143 0.403288871 0
v 0.598797917 0.414340615 0
v 0.592883229 0.42530483 0
v 0.586879969 0.436044335 0
v 0.580716252 0.446692705 0
v 0.574392736 0.457246929 0
v 0.567909956 0.467703998 0
v 0.561268449 0.478060961 0
v 0.55446887 0.488314807 0
v 0.547511697 0.498462617 0
v 0.540496647 0.508363843 0
v 0.533329785 0.518155932 0
v 0.526012003 0.527835727 0
v 0.518544257 0.537400246 0
v 0.510927379 0.54684633 0
v 0.503162265 0.55617094 0
v 0.495249778 0.565370917 0
v 0.487308919 0.574312627 0
v 0.479227096 0.58312726 0
v 0.471005589 0.591811776 0
v 0.46264568 0.600363076 0
v 0.45414865 0.608778059 0
v 0.445515782 0.617053568 0
v 0.436748356 0.625186563 0
v 0.427978277 0.633058727 0
v 0.419080496 0.640786469 0
v 0.41005677 0.648366749 0
v 0.400908858 0.655796587 0
v 0.391638488 0.663072944 0
v 0.382247388 0.670192778 0
v 0.372737288 0.677153111 0
v 0.363244176 0.683857918 0
v 0.353639305 0.690401912 0
v 0.34392491 0.696782231 0
v 0.334103256 0.702996016 0
v 0.32417661 0.709040523 0
v 0.314147204 0.714912951 0
v 0.304017305 0.720610559 0
v 0.293916047 0.72606343 0
v 0.283721715 0.731340528 0
v 0.273437083 0.736439407 0
v 0.263064891 0.741357684 0
v 0.252607942 0.746092916 0
v 0.242068976 0.750642598 0
v 0.231450751 0.755004466 0
v 0.220864251 0.759135008 0
v 0.210206032 0.76307714 0
v 0.199479297 0.766828895 0
v 0.188687265 0.770388365 0
v 0.17783314 0.773753583 0
v 0.166920155 0.776922584 0
v 0.1559515 0.779893517 0
v 0.134059951 0.785189986 0
v 0.111991227 0.789692223 0
v 0.0897741839 0.793391943 0
v 0.0674376786 0.796280861 0
v 0.0450105742 0.798350692 0
v 0.0225217193 0.799593151 0
v -2.98023224e-08 0.799999952 0
vn 0 0 -1
vn 0 0 -1
vn 0 0 -1
vn 0 0 -1
vn 0 0 -1
vn 0 0 -1
vn 0 0 -1
vn 0 0 -1
vn 0 0 -1
vn 0 0 -1
vn 0 0 -1
vn 0 0 -1
vn 0 0 -1
vn 0 0 -1
vn 0 0 -1
vn 0 0 -1
vn 0 0 -1
vn 0 0 -1
vn 0 0 -1
vn 0 0 -1
vn 0 0 -1
vn 0 0 -1
vn 0 0 -1
vn 0 0 -1
vn 0 0 -1
vn 0 0 -1
vn 0 0 -1
vn 0 0 -1
vn 0 0 -1
vn 0 0 -1
vn 0 0 -1
vn 0 0 -1
vn 0 0 -1
vn 0 0 -1
vn 0 0 -1
vn 0 0 -1
vn 0 0 -1
vn 0 0 -1
vn 0 0 -1
vn 0 0 -1
vn 0 0 -1
vn 0 0 -1
vn 0 0 -1
vn 0 0 -1
vn 0 0 -1
vn 0 0 -1
vn 0 0 -1
vn 0 0 -1
vn 0 0 -1
vn 0 0 -1
vn 0 0 -1
vn 0 0 -1
vn 0 0 -1
vn 0 0 -1
vn 0 0 -1
vn 0 0 -1
vn 0 0 -1
vn 0 0 -1
vn 0 0 -1
vn 0 0 -1
vn 0 0 -1
vn 0 0 -1
vn 0 0 -1
vn 0 0 -1
vn 0 0 -1
vn 0 0 -1
vn 0 0 -1
vn 0 0 -1
vn 0 0 -1
vn 0 0 -1
vn 0 0 -1
vn 0 0 -1
vn 0 0 -1
vn 0 0 -1
vn 0 0 -1
vn 0 0 -1
vn 0 0 -1
vn 0 0 -1
vn 0 0 -1
vn 0 0 -1
vn 0 0 -1
vn 0 0 -1
vn 0 0 -1
vn 0 0 -1
vn 0 0 -1
vn 0 0 -1
vn 0 0 -1
vn 0 0 -1
vn 0 0 -1
vn 0 0 -1
vn 0 0 -1
vn 0 0 -1
vn 0 0 -1
vn 0 0 -1
vn 0 0 -1
vn 0 0 -1
vn 0 0 -1
vn 0 0 -1
vn 0 0 -1
vn 0 0 -1
vn 0 0 -1
vn 0 0 -1
vn 0 0 -1
vn 0 0 -1
vn 0 0 -1
vn 0 0 -1
vn 0 0 -1
vn 0 0 -1
vn 0 0 -1
vn 0 0 -1
vn 0 0 -1
vn 0 0 -1
vn 0 0 -1
vn 0 0 -1
vn 0 0 -1
vn 0 0 -1
vn 0 0 -1
vn 0 0 -1
vn 0 0 -1
vn 0 0 -1
vn 0 0 -1
vn 0 0 -1
vn 0 0 -1
vn 0 0 -1
vn 0 0 -1
vn 0 0 -1
vn 0 0 -1
vn 0 0 -1
vn 0 0 -1
vn 0 0 -1
vn 0 0 -1
vn 0 0 -1
vn 0 0 -1
vn 0 0 -1
vn 0 0 -1
vn 0 0 -1
vn 0 0 -1
vn 0 0 -1
vn 0 0 -1
vn 0 0 -1
vn 0 0 -1
vn 0 0 -1
vn 0 0 -1
vn 0 0 -1
vn 0 0 -1
vn 0 0 -1
vn 0 0 -1
vn 0 0 -1
vn 0 0 -1
vn 0 0 -1
vn 0 0 -1
vn 0 0 -1
vn 0 0 -1
vn 0 0 -1
vn 0 0 -1
vn 0 0 -1
vn 0 0 -1
vn 0 0 -1
vn 0 0 -1
vn 0 0 -1
vn 0 0 -1
vn 0 0 -1
vn 0 0 -1
vn 0 0 -1
vn 0 0 -1
vn 0 0 -1
vn 0 0 -1
vn 0 0 -1
vn 0 0 -1
vn 0 0 -1
g 
f 1//1 87//87 2//2
f 2//2 88//88 3//3
f 3//3 89//89 4//4
f 4//4 90//90 5//5
f 5//5 91//91 6//6
f 6//6 92//92 7//7
f 7//7 93//93 8//8
f 8//8 94//94 9//9
f 9//9 95//95 10//10
f 10//10 96//96 11//11
f 11//11 97//97 12//12
f 12//12 98//98 13//13
f 13//13 99//99 14//14
f 14//14 100//100 15//15
f 15//15 101//101 16//16
f 16//16 102//102 17//17
f 17//17 103//103 18//18
f 18//18 104//104 19//19
f 19//19 105//105 20//20
f 20//20 106//106 21//21
f 21//21 107//107 22//22
f 22//22 108//108 23//23
f 23//23 109//109 24//24
f 24//24 110//110 25//25
f 25//25 111//111 26//26
f 26//26 112//112 27//27
f 27//27 113//113 28//28
f 28//28 114//114 29//29
f 29//29 115//115 30//30
f 30//30 116//116 31//31
f 31//31 117//117 32//32
f 32//32 118//118 33//33
f 33//33 119//119 34//34
f 34//34 120//120 35//35
f 35//35 121//121 36//36
f 36//36 122//122 37//37
f 37//37 123//123 38//38
f 38//38 124//124 39//39
f 39//39 125//125 40//40
f 40//40 126//126 41//41
f 41//41 127//127 42//42
f 42//42 128//128 43//43
f 43//43 129//129 44//44
f 44//44 130//130 45//45
f 45//45 131//131 46//46
f 46//46 132//132 47//47
f 47//47 133//133 48//48
f 48//48 134//134 49//49
f 49//49 135//135 50//50
f 50//50 136//136 51//51
f 51//51 137//137 52//52
f 52//52 138//138 53//53
f 53//53 139//139 54//54
f 54//54 140//140 55//55
f 55//55 141//141 56//56
f 56//56 142//142 57//57
f 57//57 143//143 58//58
f 58//58 144//144 59//59
f 59//59 145//145 60//60
f 60//60 146//146 61//61
f 61//61 147//147 62//62
f 62//62 148//148 63//63
f 63//63 149//149 64//64
f 64//64 150//150 65//65
f 65//65 151//151 66//66
f 66//66 152//152 67//67
f 67//67 153//153 68//68
f 68//68 154//154 69//69
f 69//69 155//155 70//70
f 70//70 156//156 71//71
f 71//71 157//157 72//72
f 72//72 158//158 73//73
f 73//73 159//159 74//74
f 74//74 160//160 75//75
f 75//75 161//161 76//76
f 76//76 162//162 77//77
f 77//77 163//163 78//78
f 78//78 164//164 79//79
f 79//79 165//165 80//80
f 80//80 166//166 81//81
f 81//81 167//167 82//82
f 82//82 168//168 83//83
f 83//83 169//169 84//84
f 84//84 170//170 85//85
f 170//170 84//84 169//169
f 169//169 83//83 168//168
f 168//168 82//82 167//167
f 167//167 81//81 166//166
f 166//166 80//80 165//165
f 165//165 79//79 164//164
f 164//164 78//78 163//163
f 163//163 77//77 162//162
f 162//162 76//76 161//161
f 161//161 75//75 160//160
f 160//160 74//74 159//159
f 159//159 73//73 158//158
f 158//158 72//72 157//157
f 157//157 71//71 156//156
f 156//156 70//70 155//155
f 155//155 69//69 154//154
f 154//154 68//68 153//153
f 153//153 67//67 152//152
f 152//152 66//66 151//151
f 151//151 65//65 150//150
f 150//150 64//64 149//149
f 149//149 63//63 148//148
f 148//148 62//62 147//147
f 147//147 61//61 146//146
f 146//146 60//60 145//145
f 145//145 59//59 144//144
f 144//144 58//58 143//143
f 143//143 57//57 142//142
f 142//142 56//56 141//141
f 141//141 55//55 140//140
f 140//140 54//54 139//139
f 139//139 53//53 138//138
f 138//138 52//52 137//137
f 137//137 51//51 136//136
f 136//136 50//50 135//135
f 135//135 49//49 134//134
f 134//134 48//48 133//133
f 133//133 47//47 132//132
f 132//132 46//46 131//131
f 131//131 45//45 130//130
f 130//130 44//44 129//129
f 129//129 43//43 128//128
f 128//128 42//42 127//127
f 127//127 41//41 126//126
f 126//126 40//40 125//125
f 125//125 39//39 124//124
f 124//124 38//38 123//123
f 123//123 37//37 122//122
f 122//122 36//36 121//121
f 121//121 35//35 120//120
f 120//120 34//34 119//119
f 119//119 33//33 118//118
f 118//118 32//32 117//117
f 117//117 31//31 116//116
f 116//116 30//30 115//115
f 115//115 29//29 114//114
f 114//114 28//28 113//113
f 113//113 27//27 112//112
f 112//112 26//26 111//111
f 111//111 25//25 110//110
f 110//110 24//24 109//109
f 109//109 23//23 108//108
f 108//108 22//22 107//107
f 107//107 21//21 106//106
f 106//106 20//20 105//105
f 105//105 19//19 104//104
f 104//104 18//18 103//103
f 103//103 17//17 102//102
f 102//102 16//16 101//101
f 101//101 15//15 100//100
f 100//100 14//14 99//99
f 99//99 13//13 98//98
f 98//98 12//12 97//97
f 97//97 11//11 96//96
f 96//96 10//10 95//95
f 95//95 9//9 94//94
f 94//94 8//8 93//93
f 93//93 7//7 92//92
f 92//92 6//6 91//91
f 91//91 5//5 90//90
f 90//90 4//4 89//89
f 89//89 3//3 88//88
f 88//88 2//2 87//87
f 87//87 1//1 86//86
